<svg width="137" height="32" viewBox="0 0 137 32" fill="none" xmlns="http://www.w3.org/2000/svg">
<path d="M16 0C7.2 0 0 7.2 0 16C0 24.8 7.2 32 16 32C24.8 32 32 24.8 32 16C32 7.2 24.8 0 16 0ZM24.1333 17.3333C24.4 19.7333 25.3333 22 26.6667 24C26.1333 24.6667 25.4667 25.3333 24.8 26C22.8 23.4667 21.6 20.5333 21.3333 17.3333H17.3333V29.2C16.9333 29.2 16.4 29.3333 16 29.3333C15.6 29.3333 15.0667 29.3333 14.6667 29.2V17.3333H10.6667C10.4 20.5333 9.2 23.4667 7.2 26C6.53333 25.3333 5.86667 24.6667 5.33333 24C6.8 22 7.73333 19.7333 7.86667 17.3333H2.8C2.66667 16.9333 2.66667 16.4 2.66667 16C2.66667 15.6 2.66667 15.0667 2.8 14.6667H8C7.73333 12.2667 6.8 10 5.33333 8C5.86667 7.33333 6.53333 6.66667 7.2 6C9.2 8.53333 10.4 11.4667 10.6667 14.6667H14.6667V2.8C15.0667 2.66667 15.6 2.66667 16 2.66667C16.4 2.66667 16.9333 2.66667 17.3333 2.8V14.6667H21.3333C21.6 11.4667 22.8 8.53333 24.8 6C25.4667 6.66667 26.1333 7.33333 26.6667 8C25.2 10 24.2667 12.2667 24.1333 14.6667H29.3333C29.3333 15.0667 29.4667 15.6 29.4667 16C29.4667 16.4 29.4667 16.9333 29.3333 17.3333H24.1333Z" fill="#23262F"/>
<path d="M52 7.248V9.96H45.016V14.256H50.368V16.92H45.016V24H41.656V7.248H52ZM55.6066 9.12C55.0146 9.12 54.5186 8.936 54.1186 8.568C53.7346 8.184 53.5426 7.712 53.5426 7.152C53.5426 6.592 53.7346 6.128 54.1186 5.76C54.5186 5.376 55.0146 5.184 55.6066 5.184C56.1986 5.184 56.6866 5.376 57.0706 5.76C57.4706 6.128 57.6706 6.592 57.6706 7.152C57.6706 7.712 57.4706 8.184 57.0706 8.568C56.6866 8.936 56.1986 9.12 55.6066 9.12ZM57.2626 10.704V24H53.9026V10.704H57.2626ZM64.0143 13.464V19.896C64.0143 20.344 64.1183 20.672 64.3263 20.88C64.5503 21.072 64.9183 21.168 65.4303 21.168H66.9903V24H64.8783C62.0463 24 60.6303 22.624 60.6303 19.872V13.464H59.0463V10.704H60.6303V7.416H64.0143V10.704H66.9903V13.464H64.0143ZM68.3989 20.592V17.952L76.2469 6.72H80.1589V17.664H82.2709V20.592H80.1589V24H76.7989V20.592H68.3989ZM77.0149 10.32L72.0949 17.664H77.0149V10.32ZM90.0981 24.168C88.9301 24.168 87.8741 23.968 86.9301 23.568C86.0021 23.168 85.2661 22.592 84.7221 21.84C84.1781 21.088 83.8981 20.2 83.8821 19.176H87.4821C87.5301 19.864 87.7701 20.408 88.2021 20.808C88.6501 21.208 89.2581 21.408 90.0261 21.408C90.8101 21.408 91.4261 21.224 91.8741 20.856C92.3221 20.472 92.5461 19.976 92.5461 19.368C92.5461 18.872 92.3941 18.464 92.0901 18.144C91.7861 17.824 91.4021 17.576 90.9381 17.4C90.4901 17.208 89.8661 17 89.0661 16.776C87.9781 16.456 87.0901 16.144 86.4021 15.84C85.7301 15.52 85.1461 15.048 84.6501 14.424C84.1701 13.784 83.9301 12.936 83.9301 11.88C83.9301 10.888 84.1781 10.024 84.6741 9.288C85.1701 8.552 85.8661 7.992 86.7621 7.608C87.6581 7.208 88.6821 7.008 89.8341 7.008C91.5621 7.008 92.9621 7.432 94.0341 8.28C95.1221 9.112 95.7221 10.28 95.8341 11.784H92.1381C92.1061 11.208 91.8581 10.736 91.3941 10.368C90.9461 9.984 90.3461 9.792 89.5941 9.792C88.9381 9.792 88.4101 9.96 88.0101 10.296C87.6261 10.632 87.4341 11.12 87.4341 11.76C87.4341 12.208 87.5781 12.584 87.8661 12.888C88.1701 13.176 88.5381 13.416 88.9701 13.608C89.4181 13.784 90.0421 13.992 90.8421 14.232C91.9301 14.552 92.8181 14.872 93.5061 15.192C94.1941 15.512 94.7861 15.992 95.2821 16.632C95.7781 17.272 96.0261 18.112 96.0261 19.152C96.0261 20.048 95.7941 20.88 95.3301 21.648C94.8661 22.416 94.1861 23.032 93.2901 23.496C92.3941 23.944 91.3301 24.168 90.0981 24.168ZM111.011 10.704V24H107.627V22.32C107.195 22.896 106.627 23.352 105.923 23.688C105.235 24.008 104.483 24.168 103.667 24.168C102.627 24.168 101.707 23.952 100.907 23.52C100.107 23.072 99.4751 22.424 99.0111 21.576C98.5631 20.712 98.3391 19.688 98.3391 18.504V10.704H101.699V18.024C101.699 19.08 101.963 19.896 102.491 20.472C103.019 21.032 103.739 21.312 104.651 21.312C105.579 21.312 106.307 21.032 106.835 20.472C107.363 19.896 107.627 19.08 107.627 18.024V10.704H111.011ZM117.206 12.768C117.638 12.064 118.198 11.512 118.886 11.112C119.59 10.712 120.39 10.512 121.286 10.512V14.04H120.398C119.342 14.04 118.542 14.288 117.998 14.784C117.47 15.28 117.206 16.144 117.206 17.376V24H113.846V10.704H117.206V12.768ZM135.429 17.064C135.429 17.544 135.397 17.976 135.333 18.36H125.613C125.693 19.32 126.029 20.072 126.621 20.616C127.213 21.16 127.941 21.432 128.805 21.432C130.053 21.432 130.941 20.896 131.469 19.824H135.093C134.709 21.104 133.973 22.16 132.885 22.992C131.797 23.808 130.461 24.216 128.877 24.216C127.597 24.216 126.445 23.936 125.421 23.376C124.413 22.8 123.621 21.992 123.045 20.952C122.485 19.912 122.205 18.712 122.205 17.352C122.205 15.976 122.485 14.768 123.045 13.728C123.605 12.688 124.389 11.888 125.397 11.328C126.405 10.768 127.565 10.488 128.877 10.488C130.141 10.488 131.269 10.76 132.261 11.304C133.269 11.848 134.045 12.624 134.589 13.632C135.149 14.624 135.429 15.768 135.429 17.064ZM131.949 16.104C131.933 15.24 131.621 14.552 131.013 14.04C130.405 13.512 129.661 13.248 128.781 13.248C127.949 13.248 127.245 13.504 126.669 14.016C126.109 14.512 125.765 15.208 125.637 16.104H131.949Z" fill="#23262F"/>
</svg>
